<svg width="100%" height="100%" viewBox="0 0 995 392" version="1.1" xmlns="http://www.w3.org/2000/svg" xml:space="preserve" style="fill-rule:evenodd;clip-rule:evenodd;stroke-linecap:round;stroke-linejoin:round;stroke-miterlimit:1.5;"><g><g><path d="M76.534,131.151l28.282,0c5.176,0 9.735,0.678 13.679,2.034c3.943,1.355 7.517,3.758 10.721,7.209c3.204,3.45 5.422,7.486 6.655,12.107c1.232,4.622 1.848,10.876 1.848,18.763c0,5.792 -0.339,10.752 -1.016,14.88c-0.678,4.128 -2.126,7.979 -4.344,11.553c-2.588,4.313 -6.039,7.671 -10.352,10.074c-4.313,2.403 -9.982,3.605 -17.006,3.605l-9.612,0l0,51.388l-18.855,0l0,-131.613Zm18.855,62.479l9.057,0c3.821,0 6.778,-0.554 8.873,-1.663c2.095,-1.109 3.636,-2.619 4.621,-4.529c0.986,-1.91 1.572,-4.221 1.756,-6.932c0.185,-2.711 0.278,-5.73 0.278,-9.058c0,-3.08 -0.093,-6.007 -0.278,-8.78c-0.184,-2.773 -0.739,-5.176 -1.663,-7.209c-0.924,-2.033 -2.372,-3.635 -4.344,-4.806c-1.972,-1.171 -4.806,-1.756 -8.503,-1.756l-9.797,0l0,44.733Z" style="fill:#fff;fill-rule:nonzero;"/><path d="M173.765,169.045l-0.37,0l-9.242,47.691l18.854,0l-9.242,-47.691Zm-7.949,-37.894l15.712,0l29.391,131.613l-18.854,0l-5.546,-28.282l-25.694,0l-5.545,28.282l-18.855,0l29.391,-131.613Z" style="fill:#fff;fill-rule:nonzero;"/><path d="M220.162,131.151l18.855,0l0,112.758l37.339,0l0,18.855l-56.194,0l0,-131.613Z" style="fill:#fff;fill-rule:nonzero;"/></g><g><path d="M430.528,253.763c0,6.465 -1.225,12.636 -3.673,18.513c-2.449,5.876 -5.828,11.019 -10.138,15.427c-4.31,4.407 -9.354,7.933 -15.133,10.578c-5.779,2.645 -11.999,3.967 -18.66,3.967c-5.681,0 -11.46,-0.784 -17.337,-2.351c-5.877,-1.567 -11.166,-4.261 -15.867,-8.081c-4.702,-3.82 -8.571,-8.864 -11.607,-15.133c-3.037,-6.269 -4.555,-14.202 -4.555,-23.801l0,-115.189c0,-6.856 1.175,-13.223 3.526,-19.1c2.351,-5.877 5.681,-10.97 9.991,-15.28c4.31,-4.31 9.452,-7.689 15.427,-10.138c5.975,-2.449 12.586,-3.673 19.835,-3.673c6.856,0 13.223,1.224 19.1,3.673c5.877,2.449 10.97,5.877 15.28,10.285c4.31,4.408 7.689,9.697 10.138,15.868c2.448,6.17 3.673,12.88 3.673,20.128l0,11.754l-29.973,0l0,-9.991c0,-5.877 -1.665,-10.97 -4.995,-15.28c-3.33,-4.31 -7.836,-6.464 -13.517,-6.464c-7.444,0 -12.391,2.301 -14.839,6.905c-2.449,4.604 -3.674,10.432 -3.674,17.484l0,106.961c0,6.072 1.323,11.166 3.967,15.28c2.645,4.114 7.396,6.171 14.252,6.171c1.959,0 4.065,-0.343 6.318,-1.029c2.253,-0.686 4.31,-1.812 6.171,-3.379c1.861,-1.567 3.379,-3.722 4.554,-6.465c1.176,-2.742 1.763,-6.171 1.763,-10.285l0,-10.284l29.973,0l0,12.929Z" style="fill:#fff;fill-rule:nonzero;"/><path d="M500.757,151.504l-0.587,0l-14.693,75.813l29.973,0l-14.693,-75.813Zm-12.635,-60.239l24.977,0l46.722,209.22l-29.973,0l-8.815,-44.959l-40.845,0l-8.815,44.959l-29.973,0l46.722,-209.22Z" style="fill:#fff;fill-rule:nonzero;"/><path d="M574.513,91.265l44.371,0c17.044,0 30.071,4.751 39.082,14.252c9.011,9.501 13.517,22.773 13.517,39.816l0,97.852c0,19.589 -4.75,34.037 -14.251,43.342c-9.502,9.305 -23.166,13.958 -40.992,13.958l-41.727,0l0,-209.22Zm29.973,181.011l13.811,0c8.423,0 14.398,-2.106 17.924,-6.318c3.527,-4.212 5.29,-10.824 5.29,-19.835l0,-100.79c0,-8.228 -1.665,-14.594 -4.996,-19.1c-3.33,-4.506 -9.403,-6.758 -18.218,-6.758l-13.811,0l0,152.801Z" style="fill:#fff;fill-rule:nonzero;"/><path d="M699.693,91.265l44.371,0c17.043,0 30.07,4.751 39.081,14.252c9.012,9.501 13.517,22.773 13.517,39.816l0,97.852c0,19.589 -4.75,34.037 -14.251,43.342c-9.501,9.305 -23.165,13.958 -40.992,13.958l-41.726,0l0,-209.22Zm29.972,181.011l13.811,0c8.424,0 14.398,-2.106 17.925,-6.318c3.526,-4.212 5.289,-10.824 5.289,-19.835l0,-100.79c0,-8.228 -1.665,-14.594 -4.996,-19.1c-3.33,-4.506 -9.403,-6.758 -18.218,-6.758l-13.811,0l0,152.801Z" style="fill:#fff;fill-rule:nonzero;"/><path d="M847.498,212.037l-41.139,-120.772l31.736,0l24.095,83.159l0.588,0l24.096,-83.159l31.735,0l-41.138,120.772l0,88.448l-29.973,0l0,-88.448Z" style="fill:#fff;fill-rule:nonzero;"/></g></g><path d="M986.957,26.811c0,-10.368 -8.417,-18.785 -18.785,-18.785l-941.201,0c-10.367,0 -18.785,8.417 -18.785,18.785l0,338.128c0,10.368 8.418,18.785 18.785,18.785l941.201,0c10.368,0 18.785,-8.417 18.785,-18.785l0,-338.128Z" style="fill:none;stroke:#fff;stroke-width:16px;"/></svg>
