<svg id="Layer_1" data-name="Layer 1" xmlns="http://www.w3.org/2000/svg"
     viewBox="0 0 714 441.94">
    <defs>
        <style>
            .cls-1,.cls-2{fill:none;stroke:rgba(255,255,255,.5);stroke-linecap:round;stroke-linejoin:round;}.cls-1{stroke-width:8px;}.cls-2{stroke-width:6px;}
        </style>
    </defs>
    <title>pal_mtn</title>
    <line class="cls-1" x1="114.1" y1="437.94" x2="274.43" y2="257.59"/>
    <line class="cls-1" x1="84.54" y1="424.39" x2="167.52" y2="332.85"/>
    <line class="cls-1" x1="160.6" y1="433.44" x2="351.44" y2="220.81"/>
    <line class="cls-1" x1="211.1" y1="429.95" x2="408.84" y2="207.12"/>
    <line class="cls-1" x1="264.14" y1="421.84" x2="431.81"
          y2="233.64"/>
    <line class="cls-1" x1="317.15" y1="414.11" x2="454.77"
          y2="257.59"/>
    <line class="cls-1" x1="372.92" y1="403.86" x2="481.54"
          y2="284.12"/>
    <line class="cls-1" x1="427.69" y1="392.7" x2="505.61" y2="306.69"/>
    <line class="cls-1" x1="480.45" y1="381.47" x2="532.05"
          y2="324.62"/>
    <line class="cls-1" x1="528.39" y1="372" x2="556.69" y2="342.26"/>
    <line class="cls-1" x1="570.29" y1="371.16" x2="582.84" y2="358.8"/>
    <line class="cls-1" x1="602.79" y1="372.03" x2="604.59"
          y2="370.49"/>
    <path class="cls-1"
          d="M197.58,736.38,336.87,580.56l17.41,14.8L417,516.14l20,17.41,47.75-58.33,25.38,23.5,37.43-47s49.77,64.15,88,104.55c51.8,54.73,111.35,95.22,191.41,145.07"
          transform="translate(-156.33 -329.86)"/>
    <path class="cls-2" d="M640.15,357.24"
          transform="translate(-156.33 -329.86)"/>
    <line class="cls-2" x1="361.28" y1="116.98" x2="363.14" y2="3"/>
    <path class="cls-2" d="M397.25,349.83"
          transform="translate(-156.33 -329.86)"/>
    <path class="cls-2" d="M510.15,328"
          transform="translate(-156.33 -329.86)"/>
    <path class="cls-2" d="M739.55,427.73"
          transform="translate(-156.33 -329.86)"/>
    <line class="cls-2" x1="483.82" y1="27.38" x2="454" y2="139.7"/>
    <path class="cls-2" d="M809.15,520.63"
          transform="translate(-156.33 -329.86)"/>
    <line class="cls-2" x1="583.22" y1="97.88" x2="517.14" y2="218.04"/>
    <line class="cls-2" x1="640.88" y1="325.17" x2="693.97"
          y2="290.27"/>
    <line class="cls-2" x1="652.82" y1="190.77" x2="573.89"
          y2="276.18"/>
    <line class="cls-2" x1="271.55" y1="152.62" x2="240.92" y2="19.97"/>
    <path class="cls-2" d="M293.76,415.32"
          transform="translate(-156.33 -329.86)"/>
    <path class="cls-2" d="M219.55,506.17"
          transform="translate(-156.33 -329.86)"/>
    <line class="cls-2" x1="18.08" y1="275.79" x2="82.91" y2="321.49"/>
    <line class="cls-2" x1="201.94" y1="212.39" x2="137.43" y2="85.46"/>
    <line class="cls-2" x1="63.22" y1="176.31" x2="136.9" y2="261.44"/>
    <line class="cls-2" x1="3" y1="362.36" x2="33" y2="375.36"/>
    <line class="cls-2" x1="711" y1="361.36" x2="695.94" y2="367.05"/>
</svg>
